<svg width="1919" height="1081" xmlns="http://www.w3.org/2000/svg">
 <defs>
  <clipPath id="clip0_0_3">
   <rect id="svg_1" fill="white" height="1080" width="1920"/>
  </clipPath>
 </defs>
 <g>
  <title>background</title>
  <rect fill="none" id="canvas_background" height="1083" width="1921" y="-1" x="-1"/>
 </g>
 <g>
  <title>Layer 1</title>
  <g stroke="null" id="svg_2" clip-path="url(#clip0_0_3)">
   <rect stroke="null" x="2.449276" y="1" id="svg_3" fill="#314683" height="1090.14493" width="1918"/>
   <path stroke="null" style="vector-effect: non-scaling-stroke;" id="svg_4" fill="white" d="m1604.823527,181.891551l-14.72,-30.993l41.75,0c4.14,0 7.93,1.425 11.35,4.267c4.3,3.596 6.43,8.526 6.41,14.78c0,6.874 -2.24,12.139 -6.71,15.794c-3.31,2.708 -6.95,4.074 -10.9,4.099l-14.22,0l0,19.349l-12.96,-27.296zm12.96,-3.035l10.67,0c2.21,0 4.06,-0.662 5.54,-1.995c1.84,-1.568 2.75,-3.932 2.75,-7.101c0,-2.707 -1,-4.77 -2.99,-6.178c-1.59,-1.14 -3.36,-1.719 -5.3,-1.719l-10.67,0l0,16.993z"/>
   <path stroke="null" id="svg_5" fill="white" d="m1562.313527,209.178551l5.91,-12.642l29.35,0l6.17,12.642l-41.43,0z"/>
   <path stroke="null" id="svg_6" fill="white" d="m1575.573527,183.073551l7.02,-17.27l7.88,17.27l-14.9,0z"/>
   <path stroke="null" id="svg_7" fill="white" d="m1664.213527,153.170551l10.73,0l0,54.634l-5.42,0l0,-49.286l-8.58,0l3.27,-5.348z"/>
   <path stroke="null" id="svg_8" fill="white" d="m1697.333527,209.178551l-4.49,-2.9l14.78,-22.367c-1.98,0.654 -3.84,0.981 -5.57,0.981c-4.35,0 -8.03,-1.568 -11.05,-4.695c-3.03,-3.135 -4.55,-6.991 -4.55,-11.568c0,-3.144 0.73,-5.978 2.19,-8.509c1.46,-2.524 3.54,-4.544 6.22,-6.053c2.68,-1.509 5.57,-2.264 8.64,-2.264c3.01,0 5.81,0.73 8.37,2.188c2.57,1.459 4.58,3.505 6.04,6.129c1.46,2.624 2.19,5.424 2.19,8.391c0,2.255 -0.46,4.611 -1.36,7.076c-0.91,2.464 -2.53,5.432 -4.85,8.894l-16.56,24.697zm5.97,-29.081c3.21,0 5.92,-1.123 8.15,-3.362c2.23,-2.238 3.35,-4.946 3.35,-8.115c0,-3.169 -1.13,-5.876 -3.36,-8.115c-2.24,-2.238 -4.97,-3.361 -8.15,-3.361c-3.17,0 -5.88,1.123 -8.12,3.361c-2.24,2.239 -3.36,4.946 -3.36,8.115c0,3.169 1.12,5.877 3.37,8.115c2.23,2.247 4.95,3.362 8.12,3.362z"/>
   <path stroke="null" id="svg_9" fill="white" d="m1748.503527,151.795551l4.49,2.934l-14.77,22.358c1.98,-0.67 3.84,-0.997 5.57,-0.997c4.35,0 8.03,1.567 11.05,4.694c3.03,3.136 4.54,6.992 4.54,11.569c0,3.144 -0.73,5.986 -2.2,8.526c-1.46,2.54 -3.53,4.552 -6.23,6.053c-2.69,1.5 -5.58,2.246 -8.67,2.246c-3,0 -5.79,-0.721 -8.35,-2.171c-2.57,-1.45 -4.58,-3.487 -6.05,-6.111c-1.46,-2.624 -2.19,-5.433 -2.19,-8.434c0,-2.23 0.45,-4.577 1.36,-7.042c0.9,-2.464 2.52,-5.424 4.85,-8.894l16.6,-24.731zm-6,29.082c-3.17,0 -5.88,1.123 -8.12,3.361c-2.25,2.239 -3.36,4.955 -3.36,8.149c0,3.169 1.12,5.876 3.37,8.115c2.25,2.238 4.95,3.361 8.13,3.361c3.18,0 5.89,-1.123 8.12,-3.361c2.25,-2.239 3.37,-4.946 3.37,-8.115c0,-3.194 -1.12,-5.91 -3.37,-8.149c-2.25,-2.238 -4.97,-3.361 -8.14,-3.361z"/>
   <path stroke="null" id="svg_10" fill="white" d="m1802.193527,153.170551l0,5.197l-19.41,0l-2.74,14.898c2.38,-0.696 4.51,-1.048 6.43,-1.048c4.97,0 9.07,1.668 12.29,4.996c3.23,3.328 4.84,7.595 4.84,12.793c0,3.588 -0.83,6.883 -2.49,9.875c-1.66,2.993 -3.91,5.29 -6.74,6.891c-2.83,1.593 -6.11,2.398 -9.82,2.398c-4.44,0 -8.18,-1.358 -11.22,-4.066c-3.04,-2.708 -4.86,-6.22 -5.46,-10.529l5.61,0c0.42,2.104 1.13,3.814 2.14,5.122c1,1.316 2.34,2.372 4,3.177c1.67,0.805 3.43,1.207 5.26,1.207c3.59,0 6.67,-1.358 9.25,-4.082c2.57,-2.716 3.86,-6.12 3.86,-10.203c0,-3.68 -1.16,-6.673 -3.48,-8.978c-2.34,-2.297 -5.44,-3.446 -9.33,-3.446c-3.22,0 -7.11,0.981 -11.69,2.934l5.05,-27.145l23.65,0l0,0.009z"/>
   <path stroke="null" id="svg_11" fill="white" d="m1572.943527,234.471551l6.45,13.849l-1.49,0l-2.18,-4.561l-5.97,0l-2.15,4.561l-1.55,0l6.55,-13.849l0.34,0zm-0.18,2.942l-2.37,5.013l4.73,0l-2.36,-5.013z"/>
   <path stroke="null" id="svg_12" fill="white" d="m1597.003527,246.819551l2.06,2.599l-1.7,0l-1.41,-1.794c-1.13,0.696 -2.41,1.048 -3.82,1.048c-2.06,0 -3.79,-0.704 -5.19,-2.113c-1.41,-1.408 -2.12,-3.11 -2.12,-5.105c0,-1.333 0.33,-2.565 0.98,-3.705c0.64,-1.141 1.52,-2.029 2.64,-2.666c1.11,-0.637 2.34,-0.964 3.66,-0.964c2.05,0 3.78,0.704 5.19,2.104c1.41,1.408 2.11,3.127 2.11,5.172c0,1.065 -0.19,2.046 -0.58,2.926c-0.39,0.897 -0.99,1.727 -1.82,2.498zm-0.85,-1.081c1.21,-1.174 1.81,-2.624 1.81,-4.343c0,-1.098 -0.25,-2.096 -0.77,-2.984c-0.51,-0.889 -1.23,-1.601 -2.16,-2.138c-0.93,-0.536 -1.92,-0.805 -2.94,-0.805c-1.04,0 -2.01,0.269 -2.92,0.797c-0.92,0.528 -1.64,1.249 -2.15,2.154c-0.51,0.906 -0.77,1.92 -0.77,3.027c0,1.643 0.57,3.034 1.7,4.166c1.13,1.132 2.51,1.702 4.12,1.702c1.09,0 2.1,-0.268 3.01,-0.805l-3.08,-3.915l1.68,0l2.47,3.144z"/>
   <path stroke="null" id="svg_13" fill="white" d="m1604.683527,235.829551l0,-1.358l7.59,0l0,1.358l-3.09,0l0,12.491l-1.4,0l0,-12.491l-3.1,0z"/>
   <path stroke="null" id="svg_14" fill="white" d="m1624.723527,234.127551c2.09,0 3.86,0.696 5.26,2.096c1.42,1.4 2.12,3.127 2.12,5.172c0,2.029 -0.7,3.748 -2.11,5.156c-1.41,1.408 -3.12,2.121 -5.15,2.121c-2.06,0 -3.79,-0.704 -5.2,-2.113c-1.42,-1.408 -2.12,-3.11 -2.12,-5.105c0,-1.333 0.32,-2.565 0.96,-3.697c0.65,-1.132 1.52,-2.029 2.63,-2.666c1.11,-0.645 2.31,-0.964 3.61,-0.964zm0.06,1.341c-1.02,0 -2,0.269 -2.92,0.805c-0.92,0.537 -1.63,1.249 -2.15,2.155c-0.52,0.905 -0.77,1.911 -0.77,3.026c0,1.643 0.57,3.035 1.71,4.166c1.14,1.132 2.52,1.702 4.13,1.702c1.07,0 2.07,-0.26 2.98,-0.779c0.92,-0.52 1.63,-1.233 2.14,-2.138c0.51,-0.906 0.77,-1.912 0.77,-3.018c0,-1.098 -0.26,-2.096 -0.77,-2.985c-0.51,-0.888 -1.23,-1.601 -2.16,-2.129c-0.93,-0.536 -1.91,-0.805 -2.96,-0.805zm2.3,-6.606l2.02,0l-2.77,2.901l-1.3,0l2.05,-2.901z"/>
   <path stroke="null" id="svg_15" fill="white" d="m1638.783527,234.471551l2.73,0c1.1,0 1.95,0.134 2.53,0.394c0.59,0.26 1.06,0.662 1.4,1.198c0.35,0.537 0.51,1.141 0.51,1.803c0,0.612 -0.15,1.174 -0.45,1.677c-0.3,0.503 -0.74,0.913 -1.32,1.232c0.72,0.243 1.27,0.536 1.66,0.863c0.38,0.327 0.68,0.73 0.9,1.199c0.22,0.47 0.33,0.973 0.33,1.518c0,1.114 -0.4,2.053 -1.22,2.816c-0.81,0.772 -1.9,1.157 -3.27,1.157l-3.8,0l0,-13.857zm1.36,1.358l0,4.434l0.79,0c0.97,0 1.67,-0.092 2.12,-0.268c0.46,-0.176 0.82,-0.461 1.08,-0.846c0.26,-0.386 0.39,-0.814 0.39,-1.283c0,-0.637 -0.22,-1.132 -0.66,-1.492c-0.45,-0.361 -1.15,-0.545 -2.12,-0.545l-1.6,0zm0,5.826l0,5.307l1.71,0c1.02,0 1.76,-0.101 2.23,-0.294c0.47,-0.201 0.85,-0.503 1.14,-0.93c0.29,-0.419 0.43,-0.872 0.43,-1.367c0,-0.612 -0.2,-1.148 -0.6,-1.609c-0.4,-0.461 -0.96,-0.772 -1.66,-0.939c-0.47,-0.109 -1.29,-0.168 -2.47,-0.168l-0.78,0z"/>
   <path stroke="null" id="svg_16" fill="white" d="m1653.683527,234.471551l7.93,0l0,1.358l-6.55,0l0,4.342l6.5,0l0,1.358l-6.5,0l0,5.441l6.5,0l0,1.358l-7.88,0l0,-13.857z"/>
   <path stroke="null" id="svg_17" fill="white" d="m1677.053527,234.471551l2.76,0c1.58,0 2.64,0.067 3.2,0.209c0.79,0.193 1.43,0.595 1.93,1.199c0.51,0.604 0.76,1.367 0.76,2.28c0,0.922 -0.24,1.685 -0.74,2.281c-0.48,0.603 -1.16,1.006 -2.02,1.207c-0.63,0.151 -1.8,0.226 -3.52,0.226l-0.99,0l0,6.438l-1.38,0l0,-13.84zm1.38,1.358l0,4.694l2.35,0.026c0.95,0 1.64,-0.084 2.08,-0.26c0.43,-0.176 0.79,-0.453 1.04,-0.839c0.25,-0.385 0.37,-0.813 0.37,-1.291c0,-0.461 -0.12,-0.888 -0.37,-1.274c-0.25,-0.386 -0.58,-0.662 -0.99,-0.822c-0.41,-0.159 -1.08,-0.243 -2.02,-0.243l-2.46,0l0,0.009z"/>
   <path stroke="null" id="svg_18" fill="white" d="m1698.923527,234.127551c2.1,0 3.86,0.696 5.26,2.096c1.42,1.4 2.13,3.127 2.13,5.172c0,2.029 -0.71,3.748 -2.12,5.156c-1.41,1.408 -3.12,2.121 -5.15,2.121c-2.06,0 -3.79,-0.704 -5.2,-2.113c-1.42,-1.408 -2.12,-3.11 -2.12,-5.105c0,-1.333 0.32,-2.565 0.96,-3.697c0.65,-1.132 1.52,-2.029 2.63,-2.666c1.11,-0.645 2.32,-0.964 3.61,-0.964zm0.07,1.341c-1.03,0 -2,0.269 -2.92,0.805c-0.92,0.537 -1.64,1.249 -2.16,2.155c-0.51,0.905 -0.77,1.911 -0.77,3.026c0,1.643 0.57,3.035 1.71,4.166c1.14,1.132 2.52,1.702 4.13,1.702c1.07,0 2.07,-0.26 2.98,-0.779c0.92,-0.52 1.63,-1.233 2.14,-2.138c0.51,-0.906 0.77,-1.912 0.77,-3.018c0,-1.098 -0.26,-2.096 -0.77,-2.985c-0.51,-0.888 -1.23,-1.601 -2.16,-2.129c-0.92,-0.536 -1.91,-0.805 -2.95,-0.805z"/>
   <path stroke="null" id="svg_19" fill="white" d="m1712.943527,234.471551l1.39,0l0,12.516l5.33,0l0,1.333l-6.72,0l0,-13.849z"/>
   <path stroke="null" id="svg_20" fill="white" d="m1724.613527,234.471551l1.6,0l3.54,5.709l3.49,-5.709l1.6,0l-4.38,7.234l0,6.623l-1.37,0l0,-6.623l-4.48,-7.234z"/>
   <path stroke="null" id="svg_21" fill="white" d="m1739.603527,235.829551l0,-1.358l7.59,0l0,1.358l-3.08,0l0,12.491l-1.41,0l0,-12.491l-3.1,0z"/>
   <path stroke="null" id="svg_22" fill="white" d="m1753.053527,234.471551l7.94,0l0,1.358l-6.56,0l0,4.342l6.5,0l0,1.358l-6.5,0l0,5.441l6.5,0l0,1.358l-7.88,0l0,-13.857z"/>
   <path stroke="null" id="svg_23" fill="white" d="m1780.143527,237.044551l-1.09,0.839c-0.61,-0.788 -1.33,-1.375 -2.17,-1.786c-0.85,-0.402 -1.77,-0.604 -2.79,-0.604c-1.1,0 -2.13,0.269 -3.07,0.797c-0.94,0.528 -1.66,1.241 -2.18,2.138c-0.52,0.897 -0.78,1.903 -0.78,3.018c0,1.685 0.57,3.101 1.73,4.225c1.16,1.131 2.62,1.693 4.39,1.693c1.93,0 3.56,-0.763 4.87,-2.28l1.09,0.83c-0.69,0.88 -1.55,1.559 -2.59,2.037c-1.03,0.478 -2.18,0.721 -3.46,0.721c-2.42,0 -4.33,-0.805 -5.73,-2.423c-1.18,-1.366 -1.76,-3.009 -1.76,-4.938c0,-2.028 0.71,-3.73 2.13,-5.113c1.42,-1.384 3.2,-2.079 5.34,-2.079c1.29,0 2.45,0.251 3.5,0.762c1.05,0.52 1.9,1.241 2.57,2.163z"/>
   <path stroke="null" id="svg_24" fill="white" d="m1786.753527,234.471551l1.38,0l0,5.809l7.05,0l0,-5.809l1.39,0l0,13.849l-1.39,0l0,-6.682l-7.05,0l0,6.682l-1.38,0l0,-13.849z"/>
   <path stroke="null" id="svg_25" fill="white" d="m1802.803527,219.222551l-241.76,0l0,1.617l241.76,0l0,-1.617z"/>
   <path stroke="white" id="svg_26" stroke-width="5" d="m-2.550678,662.898551l139.5,179.5l-141.5,188"/>
   <path stroke="white" id="svg_27" stroke-width="5" d="m-7.550678,1078.847827l160.5,-212.5l208,-58l-47,191l-152,82"/>
   <path stroke="white" id="svg_28" stroke-width="5" d="m208.449322,1084.398551l117,-66.5l83.5,66.5"/>
   <path stroke="null" id="svg_29" fill="white" d="m199.592527,205.705551c-5.718,0 -9.53,-4.681 -9.53,-11.635c0,-6.955 3.812,-11.636 9.53,-11.636c5.718,0 9.485,4.681 9.485,11.636c0,6.954 -3.812,11.635 -9.485,11.635zm0,-26.044c-9.712,0 -13.161,7.773 -13.161,14.409c0,6.635 3.449,14.362 13.161,14.362c9.712,0 13.161,-7.772 13.161,-14.362c0,-6.591 -3.449,-14.409 -13.161,-14.409z" clip-rule="evenodd" fill-rule="evenodd"/>
   <path stroke="null" id="svg_30" fill="white" d="m220.151527,184.707551l0,-4.5l-3.086,0l0,27.453l3.358,0l0,-13.545l-0.046,-0.182c0.046,-5.045 1.453,-11.09 8.26,-11.09l1.044,0.045l0,-0.09l0.182,-3.228l-0.364,0c-4.674,0 -7.76,1.773 -9.348,5.137z" clip-rule="evenodd" fill-rule="evenodd"/>
   <path stroke="null" id="svg_31" fill="white" d="m293.081527,185.570551c-2.314,-0.727 -3.948,-1.182 -6.716,-1.182c-1.997,0 -4.403,0.728 -4.403,3.091c0,4.454 12.98,1.636 12.98,11.681c0,6.5 -5.945,9.136 -12.027,9.136c-2.859,-0.046 -5.718,-0.455 -8.486,-1.182l0.454,-5.954c2.269,1.182 4.81,1.818 7.352,1.864c1.906,0 4.901,-0.728 4.901,-3.409c0,-5.5 -12.979,-1.727 -12.979,-11.818c0,-5.999 5.4,-8.681 11.255,-8.681c3.494,0 5.809,0.545 8.169,1.045l-0.5,5.409z" clip-rule="evenodd" fill-rule="evenodd"/>
   <path stroke="null" id="svg_32" fill="white" d="m382.531527,185.570551c-2.269,-0.727 -3.993,-1.182 -6.716,-1.182c-1.997,0 -4.402,0.728 -4.402,3.091c0,4.454 12.979,1.636 12.979,11.681c0,6.5 -5.945,9.136 -12.026,9.136c-2.859,-0.046 -5.719,-0.455 -8.487,-1.182l0.454,-5.954c2.269,1.182 4.81,1.818 7.352,1.864c1.906,0 4.901,-0.728 4.901,-3.409c0,-5.5 -12.979,-1.727 -12.979,-11.818c0,-5.999 5.446,-8.681 11.3,-8.681c3.495,0 5.764,0.545 8.124,1.045l-0.5,5.409z" clip-rule="evenodd" fill-rule="evenodd"/>
   <path stroke="null" id="svg_33" fill="white" d="m313.277527,192.251551l10.619,-12.499l-8.849,0l-8.941,11.181l-0.091,0l0,-26.225l-7.442,2.318l0,40.634l7.442,0l0,-13.545l0.091,0l9.621,13.545l9.486,0l-11.936,-15.409z" clip-rule="evenodd" fill-rule="evenodd"/>
   <path stroke="null" id="svg_34" fill="white" d="m252.463527,205.569551c-7.715,0 -8.532,-8.136 -8.532,-11.636c0,-3.5 0.817,-11.635 8.532,-11.635c5.9,0 8.487,5.863 8.487,11.635c0,5.818 -2.632,11.636 -8.487,11.636zm11.664,-39.316l-3.177,1l0,16.999c-0.681,-1.182 -3.268,-4.727 -9.077,-4.636c-9.621,0.136 -11.618,7.909 -11.618,14.408c0,8.863 4.448,14.363 11.618,14.363c4.266,0 7.171,-1.591 9.077,-4.909l0,4.272l3.358,0l0,-41.451l-0.181,-0.046z" clip-rule="evenodd" fill-rule="evenodd"/>
   <path stroke="null" id="svg_35" fill="white" d="m236.443527,166.253551l-3.177,1l0,40.407l3.313,0l0,-41.452l-0.136,0.045z" clip-rule="evenodd" fill-rule="evenodd"/>
   <path stroke="null" id="svg_36" fill="white" d="m340.189527,167.026551l0,40.634l7.443,0l0,-42.952l-7.443,2.318z" clip-rule="evenodd" fill-rule="evenodd"/>
   <path stroke="null" id="svg_37" fill="white" d="m351.943527,167.026551l0,40.634l7.443,0l0,-42.952l-7.443,2.318z" clip-rule="evenodd" fill-rule="evenodd"/>
   <path stroke="null" id="svg_38" fill="white" d="m335.923527,169.344551c0,-2.318 -1.861,-4.182 -4.13,-4.182c-2.314,0 -4.175,1.864 -4.175,4.136c0,2.318 1.861,4.182 4.13,4.182c0,0 0,0 0.045,0c2.269,0 4.13,-1.864 4.13,-4.136z" clip-rule="evenodd" fill-rule="evenodd"/>
   <path stroke="null" id="svg_39" fill="white" d="m147.583527,180.207551l-3.54,0l0.045,0.136c0.137,0.546 8.895,26.998 9.032,27.271l0.045,0.091l4.084,0l7.761,-23.908l0.272,0c0.046,0.137 7.761,23.908 7.761,23.908l4.084,0l9.304,-27.453l-3.404,0c0,0 -7.851,23.771 -7.851,23.908l-0.272,0c-0.046,-0.137 -7.534,-23.908 -7.534,-23.908l-4.085,0c0,0 -7.896,23.771 -7.942,23.908l-0.272,0l-7.443,-23.908l-0.045,0l0,-0.045z" clip-rule="evenodd" fill-rule="evenodd"/>
   <path stroke="null" id="svg_40" fill="white" d="m284.005527,99.212551c0,0 25.913,5.954 39.801,20.135c0,0 13.161,11.272 18.607,33.998c0.091,-1.364 0.045,-2.727 -0.091,-4.045c0.545,1.318 1.044,2.636 1.452,3.999c0,-0.818 -0.09,-1.636 -0.272,-2.409c0,0 1.498,3.637 1.997,6.682c0,0 -2.133,-17.408 -11.301,-33.18c0,0 6.581,2.636 14.251,31.089c0,0 -3.404,-23.726 -13.343,-36.634c0,0 -12.979,-20.8168 -44.067,-30.2252c0,0 -3.631,1.9998 -2.95,5.3632c0.091,-0.0454 0,4.0907 -4.084,5.227z" clip-rule="evenodd" fill-rule="evenodd"/>
   <path stroke="white" id="svg_41" stroke-linecap="round" stroke-width="0.094183" d="m346.452527,147.573551c-10.484,-51.2245 -54.051,-59.7239 -54.051,-59.7239"/>
   <path stroke="white" id="svg_42" stroke-linecap="round" stroke-width="0.2747" d="m292.401527,87.849651c0,0 42.977,12.9082 52.281,49.5419"/>
   <path stroke="null" id="svg_43" fill="white" d="m307.922527,42.398051c-3.722,1.409 -4.04,5.8632 -5.129,11.5447c0,0 14.523,4.2724 31.542,31.498c0,0 17.154,34.0888 16.428,69.7228c0,0 0.5,-13.226 0.5,-15.635c0,0 0.726,6.772 0.499,8.817c0.272,-1.636 0.408,-3.318 0.499,-4.954c0,0 0.862,3.409 1.089,11.999c0,0 1.498,-5.999 1.225,-22.953c0,0 0.137,-11.817 -3.04,-23.135c0,0 -4.402,-14.9079 -5.265,-17.2713c0,0 6.127,15.4083 8.442,25.8163c0,0 4.493,16.272 2.995,39.043c0,0 2.178,-4 3.041,-19.817c0,0 0.317,-13.908 -3.132,-26.225l-3.131,-10.9542c2.45,6.3182 4.311,12.8172 5.536,19.4992c0,0 3.177,15.271 0.318,30.634c0,0 -0.771,7.454 -1.77,10.181c0,0 1.634,-3.182 3.086,-16.681c0,0 1.543,-9.635 -0.862,-22.725c0,0 -1.543,-8.409 -3.268,-13.545c0,0 -7.306,-26.362 -17.563,-43.27c0,0 -9.803,-17.408 -23.962,-28.9072c0.045,0 1.815,3.6815 -8.078,7.3177z" clip-rule="evenodd" fill-rule="evenodd"/>
   <path stroke="white" id="svg_44" stroke-linecap="round" stroke-width="0.094183" d="m359.976527,117.574551c0,0 -12.526,-65.9953 -43.386,-83.676"/>
   <path stroke="white" id="svg_45" stroke-linecap="round" stroke-width="0.5573" d="m316.590527,33.943951c0,0 29.68,18.7716 44.248,83.8586c1.816,8.681 2.224,17.635 1.271,26.453"/>
   <path stroke="null" id="svg_46" fill="white" d="m347.859527,60.442351c0,0 14.386,7.5904 20.831,30.6344c0,0 9.439,33.0428 -6.944,63.0868c0,0 3.268,-5.136 4.448,-8.818c0,0 -1.453,6.136 -2.133,7.091c0,0 1.27,-2.273 2.223,-3.591c0,0 -0.408,2.409 -4.084,8.772c0,0 11.436,-11.681 15.022,-36.588c0,0 1.089,8.227 -2.36,19.135c0,0 -3.449,12.045 -10.529,20.226c0,0 10.347,-6.409 16.701,-33.543c0,0 2.723,-11.591 2.36,-22.454c0,0 0.363,-28.2704 -15.067,-47.4965c0,0 -4.04,-5.1815 -8.442,-7.954c0,0 0.091,2.9544 -5.582,5.636c0,0.0454 -3.131,1.4999 -6.444,5.8633z" clip-rule="evenodd" fill-rule="evenodd"/>
   <path stroke="white" id="svg_47" stroke-linecap="round" stroke-width="0.2747" d="m379.355527,132.983551c0,0 17.381,-62.1328 -19.152,-84.8132"/>
   <path stroke="white" id="svg_48" stroke-linecap="round" stroke-width="0.5573" d="m360.203527,48.170351c0,0 27.548,15.3172 23.599,69.2232c0,0 -1.225,16.18 -11.255,33.588"/>
   <path stroke="white" id="svg_49" stroke-linecap="round" stroke-width="0.2355" d="m388.386527,123.847551c0,0 17.79,19.817 -22.374,45.179"/>
   <path stroke="white" id="svg_50" stroke-linecap="round" stroke-width="0.2747" d="m337.284527,85.895251c0,0 54.551,8.5449 59.952,42.4513"/>
   <path stroke="white" id="svg_51" stroke-linecap="round" stroke-width="0.1413" d="m337.284527,85.895251c0,0 90.858,18.2263 51.556,74.3593"/>
   <path stroke="white" id="svg_52" stroke-linecap="round" stroke-width="1.0674" d="m384.846527,137.482551c0,0 5.128,-22.362 -74.791,-31.089"/>
   <path stroke="null" id="svg_53" fill="white" d="m295.986527,129.074551c0,0 8.033,11.408 18.607,17.59c7.17,4.499 14.704,8.454 22.465,11.862c-0.727,-0.5 -1.407,-1.09 -1.952,-1.772c0,0 1.362,0.591 2.178,0.863c0,0 -0.453,-0.136 -0.998,-1c0,0 3.54,1.409 4.266,1.546c0,0 -1.724,-0.909 -3.268,-1.727c0,0 -9.485,-4.455 -16.701,-10.863c2.587,1.772 5.356,3.363 8.215,4.772c0,0 6.989,3.5 13.932,5.5c-1.633,-0.546 -3.176,-1.273 -4.674,-2.182c0,0 -12.934,-7.181 -13.479,-8.227c0,0 5.038,2.864 5.628,3.136c0,0 1.27,0.728 1.588,0.91c0,0 -0.045,-0.273 -1.044,-0.728c0,0 -5.809,-3.454 -7.306,-4.454c0,0 -10.166,-6 -17.927,-18.044c0,0 -3.086,0.091 -4.72,1.772c0.046,0 -0.816,1.091 -4.81,1.046z" clip-rule="evenodd" fill-rule="evenodd"/>
   <path stroke="white" id="svg_54" stroke-linecap="round" stroke-width="0.2747" d="m295.350527,129.165551c0,0 6.445,13.953 33.902,25.453"/>
   <path stroke="white" id="svg_55" stroke-linecap="round" stroke-width="0.094183" d="m295.350527,129.165551c0,0 11.392,18.362 41.708,29.543"/>
   <path stroke="null" id="svg_56" fill="white" d="m312.278527,104.666551c0,0 37.623,5.636 51.238,12.045c0,0 33.765,11.635 15.521,33.18c-2.541,3.136 -5.491,5.817 -8.85,8.044c0,0 0.953,-0.181 2.95,-1.681c0,0 -1.634,2.545 -6.898,5.727c0,0 4.538,-1.409 12.344,-7.318c0,0 10.075,-7.545 11.301,-18.635c0.544,-3.818 0.226,-7.727 -0.999,-11.363c0,0 3.676,3.363 3.676,11.363c0,0 1.18,17.362 -23.418,32.543c0,0 4.63,-1.545 11.573,-6.408c0,0 23.463,-15.045 13.661,-39.453c0,0 5.899,9.273 0.998,22.726c0,0 -2.632,9.136 -14.613,19.408c0,0 5.582,-2.545 10.665,-10.499c0,0 6.308,-8.545 6.353,-18.181c0,0 1.362,-14.044 -10.574,-25.862c0,0 -12.117,-12.5899 -37.94,-20.1349c0,0 -6.899,-2.1817 -12.708,-2.9543c0,0 -2.223,5.5905 -5.627,8.7267c-3.177,2.9089 -10.756,5.9996 -18.653,8.7265z" clip-rule="evenodd" fill-rule="evenodd"/>
   <path stroke="white" id="svg_57" stroke-miterlimit="10" stroke-width="8.61" d="m332.512527,207.984551l0,-27.907"/>
   <path stroke="null" id="svg_58" fill="white" d="m168.686527,249.975551l-6.127,0l-13.025,-15.772c-0.453,-0.545 -0.771,-1 -0.907,-1.318l-0.091,0l0,17.09l-4.493,0l0,-34.77l4.493,0l0,16.362l0.091,0c0.272,-0.409 0.544,-0.818 0.907,-1.272l12.571,-15.09l5.537,0l-14.568,16.68l15.612,18.09z"/>
   <path stroke="null" id="svg_59" fill="white" d="m173.179527,226.886551c2.451,-1.546 5.31,-2.318 8.532,-2.318c5.991,0 8.941,3.136 8.941,9.408l0,15.954l-4.357,0l0,-3.818l-0.091,0c-1.725,2.954 -4.266,4.408 -7.579,4.408c-2.405,0 -4.311,-0.636 -5.718,-1.954c-1.407,-1.318 -2.133,-3.045 -2.133,-5.272c0,-4.636 2.723,-7.318 8.214,-8.091l7.352,-1.045c0,-4.045 -1.679,-6.091 -5.037,-6.091c-2.95,0 -5.673,1 -8.124,3l0,-4.181zm7.352,11.408c-2.042,0.273 -3.449,0.773 -4.221,1.545c-0.771,0.728 -1.134,1.773 -1.134,3.137c0,1.181 0.408,2.136 1.271,2.908c0.816,0.728 1.951,1.137 3.313,1.137c1.906,0 3.494,-0.682 4.719,-2c1.226,-1.364 1.861,-3.045 1.861,-5.091l0,-2.363l-5.809,0.727z"/>
   <path stroke="null" id="svg_60" fill="white" d="m215.385527,249.975551l-20.558,0l0,-1.454l14.386,-19.726l-13.07,0l0,-3.637l19.288,0l0,1.455l-14.296,19.726l14.205,0l0,3.636l0.045,0z"/>
   <path stroke="null" id="svg_61" fill="white" d="m221.058527,226.886551c2.451,-1.546 5.31,-2.318 8.532,-2.318c5.991,0 8.941,3.136 8.941,9.408l0,15.954l-4.357,0l0,-3.818l-0.091,0c-1.724,2.954 -4.266,4.408 -7.579,4.408c-2.405,0 -4.311,-0.636 -5.718,-1.954c-1.407,-1.318 -2.133,-3.045 -2.133,-5.272c0,-4.636 2.723,-7.318 8.214,-8.091l7.352,-1.045c0,-4.045 -1.679,-6.091 -5.037,-6.091c-2.95,0 -5.673,1 -8.124,3l0,-4.181zm7.352,11.408c-2.042,0.273 -3.449,0.773 -4.22,1.545c-0.772,0.728 -1.135,1.773 -1.135,3.137c0,1.181 0.409,2.136 1.271,2.908c0.817,0.728 1.951,1.137 3.313,1.137c1.906,0 3.494,-0.682 4.72,-2c1.225,-1.364 1.86,-3.045 1.86,-5.091l0,-2.363l-5.809,0.727z"/>
   <path stroke="null" id="svg_62" fill="white" d="m266.895527,249.975551l-5.99,0l-10.575,-11.954l-0.09,0l0,11.954l-4.403,0l0,-36.725l4.403,0l0,23.271l0.09,0l10.075,-11.363l5.628,0l-11.21,11.954l12.072,12.863z"/>
   <path stroke="null" id="svg_63" fill="white" d="m291.765527,249.975551l-4.357,0l0,-14.272c0,-4.999 -1.86,-7.499 -5.536,-7.499c-1.906,0 -3.449,0.727 -4.72,2.181c-1.271,1.455 -1.861,3.273 -1.861,5.5l0,14.045l-4.402,0l0,-36.68l4.402,0l0,15.999l0.091,0c1.906,-3.091 4.584,-4.681 8.078,-4.681c5.582,0 8.351,3.363 8.351,10.135l0,15.272l-0.046,0z"/>
   <path stroke="null" id="svg_64" fill="white" d="m297.665527,244.612551c2.224,1.591 4.584,2.409 7.125,2.409c3.404,0 5.128,-1.137 5.128,-3.364c0,-0.954 -0.363,-1.727 -1.134,-2.363c-0.726,-0.637 -2.269,-1.364 -4.538,-2.227c-2.769,-1.091 -4.539,-2.182 -5.356,-3.273c-0.817,-1.091 -1.225,-2.409 -1.225,-3.954c0,-2.182 0.908,-3.954 2.768,-5.273c1.861,-1.318 4.13,-1.999 6.853,-1.999c2.088,0 4.039,0.363 5.855,1.09l0,4.227c-1.861,-1.181 -3.949,-1.772 -6.309,-1.772c-1.406,0 -2.541,0.318 -3.449,0.909c-0.862,0.636 -1.316,1.409 -1.316,2.409c0,1 0.318,1.772 0.953,2.318c0.636,0.545 2.042,1.272 4.221,2.136c2.768,1.045 4.629,2.091 5.582,3.227c0.953,1.091 1.452,2.455 1.452,4.091c0,2.272 -0.907,4.045 -2.768,5.363c-1.861,1.318 -4.266,1.954 -7.216,1.954c-2.587,0 -4.811,-0.499 -6.717,-1.454l0,-4.454l0.091,0z"/>
   <path stroke="null" id="svg_65" fill="white" d="m332.202527,249.748551c-0.953,0.545 -2.27,0.772 -3.858,0.772c-4.448,0 -6.671,-2.454 -6.671,-7.363l0,-14.317l-4.266,0l0,-3.636l4.266,0l0,-5.954l4.356,-1.409l0,7.363l6.173,0l0,3.636l-6.173,0l0,13.499c0,1.636 0.273,2.818 0.817,3.5c0.545,0.682 1.453,1.045 2.769,1.045c0.998,0 1.86,-0.272 2.587,-0.818l0,3.682z"/>
   <path stroke="null" id="svg_66" fill="white" d="m337.965527,226.886551c2.451,-1.546 5.31,-2.318 8.532,-2.318c5.991,0 8.941,3.136 8.941,9.408l0,15.954l-4.357,0l0,-3.818l-0.091,0c-1.724,2.954 -4.266,4.408 -7.579,4.408c-2.405,0 -4.311,-0.636 -5.718,-1.954c-1.407,-1.318 -2.133,-3.045 -2.133,-5.272c0,-4.636 2.723,-7.318 8.214,-8.091l7.352,-1.045c0,-4.045 -1.679,-6.091 -5.037,-6.091c-2.95,0 -5.673,1 -8.124,3l0,-4.181zm7.352,11.408c-2.042,0.273 -3.449,0.773 -4.22,1.545c-0.772,0.728 -1.135,1.773 -1.135,3.137c0,1.181 0.409,2.136 1.271,2.908c0.817,0.728 1.951,1.137 3.313,1.137c1.906,0 3.494,-0.682 4.72,-2c1.225,-1.364 1.86,-3.045 1.86,-5.091l0,-2.363l-5.809,0.727z"/>
   <path stroke="null" id="svg_67" fill="white" d="m383.711527,249.975551l-4.356,0l0,-14.09c0,-5.091 -1.861,-7.636 -5.582,-7.636c-1.907,0 -3.495,0.727 -4.766,2.136c-1.225,1.455 -1.86,3.273 -1.86,5.455l0,14.135l-4.403,0l0,-24.817l4.403,0l0,4.091l0.09,0c1.861,-3.136 4.584,-4.681 8.124,-4.681c2.723,0 4.765,0.863 6.217,2.59c1.407,1.728 2.133,4.273 2.133,7.636l0,15.181z"/>
   <line stroke="#F79E1F" id="svg_68" stroke-width="5" y2="278.398551" x2="385.043527" y1="278.398551" x1="144.043527"/>
   <path stroke="null" id="svg_69" fill="#F79E1F" d="m1737.543527,771.398551l195.5,-361.5l0,613l-195.5,-251.5z"/>
   <path stroke="null" id="svg_70" fill="#F79E1F" d="m1585.043527,997.398551l148,87l-290,0l142,-87z"/>
   <path stroke="null" id="svg_71" fill="#EE3F66" d="m1696.043527,762.898551l237.5,296l0,25l-156,0l-192,-114.5l-99.5,-239.5l210,33z"/>
   <path stroke="null" id="svg_72" fill="white" d="m651.908527,907.898551l-12.105,-15.705l2.7,-1.62l13.23,17.325l-3.825,0zm-21.555,0l0,-31.5l3.24,0l0,31.5l-3.24,0zm2.25,-14.445l0,-2.925l9.855,0l0,2.925l-9.855,0zm10.17,-0.945l-3.06,-0.54l11.745,-15.57l3.6,0l-12.285,16.11zm25.554,-8.46c2.49,0 4.665,0.525 6.525,1.575c1.86,1.02 3.315,2.43 4.365,4.23c1.05,1.8 1.575,3.87 1.575,6.21c0,2.34 -0.51,4.425 -1.53,6.255c-0.99,1.8 -2.355,3.225 -4.095,4.275c-1.74,1.02 -3.735,1.53 -5.985,1.53c-2.19,0 -4.155,-0.51 -5.895,-1.53c-1.71,-1.02 -3.06,-2.43 -4.05,-4.23c-0.99,-1.83 -1.485,-3.93 -1.485,-6.3c0,-0.12 0,-0.27 0,-0.45c0,-0.18 0.015,-0.345 0.045,-0.495l20.565,0l0,2.385l-18.9,0l1.305,-0.945c0,1.68 0.36,3.195 1.08,4.545c0.72,1.32 1.71,2.37 2.97,3.15c1.29,0.75 2.745,1.125 4.365,1.125c1.65,0 3.105,-0.375 4.365,-1.125c1.29,-0.78 2.295,-1.845 3.015,-3.195c0.72,-1.35 1.08,-2.88 1.08,-4.59l0,-0.54c0,-1.8 -0.405,-3.375 -1.215,-4.725c-0.78,-1.35 -1.875,-2.415 -3.285,-3.195c-1.41,-0.78 -3.03,-1.17 -4.86,-1.17c-1.47,0 -2.82,0.255 -4.05,0.765c-1.23,0.51 -2.295,1.305 -3.195,2.385l-1.8,-2.115c1.08,-1.26 2.4,-2.205 3.96,-2.835c1.59,-0.66 3.3,-0.99 5.13,-0.99zm29.169,24.075c-2.34,0 -4.44,-0.51 -6.3,-1.53c-1.83,-1.05 -3.27,-2.475 -4.32,-4.275c-1.05,-1.83 -1.575,-3.915 -1.575,-6.255c0,-2.37 0.525,-4.455 1.575,-6.255c1.05,-1.8 2.49,-3.21 4.32,-4.23c1.86,-1.02 3.96,-1.53 6.3,-1.53c2.01,0 3.825,0.39 5.445,1.17c1.62,0.78 2.895,1.95 3.825,3.51l-2.385,1.62c-0.81,-1.2 -1.815,-2.085 -3.015,-2.655c-1.2,-0.57 -2.505,-0.855 -3.915,-0.855c-1.68,0 -3.195,0.39 -4.545,1.17c-1.35,0.75 -2.415,1.815 -3.195,3.195c-0.78,1.38 -1.17,3 -1.17,4.86c0,1.86 0.39,3.48 1.17,4.86c0.78,1.38 1.845,2.46 3.195,3.24c1.35,0.75 2.865,1.125 4.545,1.125c1.41,0 2.715,-0.285 3.915,-0.855c1.2,-0.57 2.205,-1.44 3.015,-2.61l2.385,1.62c-0.93,1.53 -2.205,2.7 -3.825,3.51c-1.62,0.78 -3.435,1.17 -5.445,1.17zm15.456,-0.225l0,-23.625l3.195,0l0,23.625l-3.195,0zm1.62,-28.845c-0.66,0 -1.215,-0.225 -1.665,-0.675c-0.45,-0.45 -0.675,-0.99 -0.675,-1.62c0,-0.63 0.225,-1.155 0.675,-1.575c0.45,-0.45 1.005,-0.675 1.665,-0.675c0.66,0 1.215,0.21 1.665,0.63c0.45,0.42 0.675,0.945 0.675,1.575c0,0.66 -0.225,1.215 -0.675,1.665c-0.42,0.45 -0.975,0.675 -1.665,0.675zm21.305,29.115c-1.92,0 -3.63,-0.315 -5.13,-0.945c-1.47,-0.63 -2.73,-1.59 -3.78,-2.88c-1.05,-1.29 -1.845,-2.88 -2.385,-4.77c-0.54,-1.92 -0.81,-4.14 -0.81,-6.66c0,-2.25 0.21,-4.215 0.63,-5.895c0.42,-1.71 1.005,-3.18 1.755,-4.41c0.75,-1.23 1.62,-2.265 2.61,-3.105c1.02,-0.87 2.115,-1.56 3.285,-2.07c1.2,-0.54 2.43,-0.945 3.69,-1.215l10.62,-2.475l0.54,2.97l-9.99,2.25c-0.63,0.15 -1.395,0.36 -2.295,0.63c-0.87,0.27 -1.77,0.675 -2.7,1.215c-0.9,0.54 -1.74,1.29 -2.52,2.25c-0.78,0.96 -1.41,2.205 -1.89,3.735c-0.45,1.5 -0.675,3.375 -0.675,5.625c0,0.48 0.015,0.87 0.045,1.17c0.03,0.27 0.06,0.57 0.09,0.9c0.06,0.3 0.105,0.75 0.135,1.35l-1.395,-1.17c0.33,-1.83 1.005,-3.42 2.025,-4.77c1.02,-1.38 2.295,-2.445 3.825,-3.195c1.56,-0.78 3.285,-1.17 5.175,-1.17c2.19,0 4.14,0.48 5.85,1.44c1.71,0.93 3.045,2.235 4.005,3.915c0.99,1.68 1.485,3.63 1.485,5.85c0,2.19 -0.51,4.155 -1.53,5.895c-0.99,1.74 -2.4,3.105 -4.23,4.095c-1.83,0.96 -3.975,1.44 -6.435,1.44zm0.36,-2.655c1.68,0 3.165,-0.375 4.455,-1.125c1.29,-0.78 2.295,-1.83 3.015,-3.15c0.75,-1.32 1.125,-2.805 1.125,-4.455c0,-1.62 -0.375,-3.06 -1.125,-4.32c-0.72,-1.26 -1.725,-2.25 -3.015,-2.97c-1.29,-0.75 -2.79,-1.125 -4.5,-1.125c-1.68,0 -3.165,0.36 -4.455,1.08c-1.29,0.69 -2.31,1.665 -3.06,2.925c-0.72,1.26 -1.08,2.715 -1.08,4.365c0,1.65 0.36,3.135 1.08,4.455c0.75,1.32 1.77,2.37 3.06,3.15c1.32,0.78 2.82,1.17 4.5,1.17zm18.683,2.385l0,-23.625l3.195,0l0,18.765l15.795,-18.765l2.835,0l0,23.625l-3.195,0l0,-18.81l-15.75,18.81l-2.88,0zm58.284,-2.79l-0.72,0.855l0,-21.69l3.195,0l0,21.69l-0.855,-0.855l13.185,0l-0.855,0.855l0,-21.69l3.195,0l0,23.625l-32.67,0l0,-23.625l3.195,0l0,21.69l-0.81,-0.855l13.14,0zm36.348,3.015c-2.46,0 -4.62,-0.51 -6.48,-1.53c-1.86,-1.05 -3.315,-2.475 -4.365,-4.275c-1.05,-1.83 -1.575,-3.915 -1.575,-6.255c0,-2.34 0.495,-4.41 1.485,-6.21c1.02,-1.8 2.4,-3.21 4.14,-4.23c1.77,-1.05 3.75,-1.575 5.94,-1.575c2.22,0 4.185,0.51 5.895,1.53c1.74,0.99 3.105,2.4 4.095,4.23c0.99,1.8 1.485,3.885 1.485,6.255c0,0.15 -0.015,0.315 -0.045,0.495c0,0.15 0,0.315 0,0.495l-20.565,0l0,-2.385l18.855,0l-1.26,0.945c0,-1.71 -0.375,-3.225 -1.125,-4.545c-0.72,-1.35 -1.71,-2.4 -2.97,-3.15c-1.26,-0.75 -2.715,-1.125 -4.365,-1.125c-1.62,0 -3.075,0.375 -4.365,1.125c-1.29,0.75 -2.295,1.8 -3.015,3.15c-0.72,1.35 -1.08,2.895 -1.08,4.635l0,0.495c0,1.8 0.39,3.39 1.17,4.77c0.81,1.35 1.92,2.415 3.33,3.195c1.44,0.75 3.075,1.125 4.905,1.125c1.44,0 2.775,-0.255 4.005,-0.765c1.26,-0.51 2.34,-1.29 3.24,-2.34l1.8,2.07c-1.05,1.26 -2.37,2.22 -3.96,2.88c-1.56,0.66 -3.285,0.99 -5.175,0.99zm28.312,0.045c-1.92,0 -3.63,-0.315 -5.13,-0.945c-1.47,-0.63 -2.73,-1.59 -3.78,-2.88c-1.05,-1.29 -1.845,-2.88 -2.385,-4.77c-0.54,-1.92 -0.81,-4.14 -0.81,-6.66c0,-2.25 0.21,-4.215 0.63,-5.895c0.42,-1.71 1.005,-3.18 1.755,-4.41c0.75,-1.23 1.62,-2.265 2.61,-3.105c1.02,-0.87 2.115,-1.56 3.285,-2.07c1.2,-0.54 2.43,-0.945 3.69,-1.215l10.62,-2.475l0.54,2.97l-9.99,2.25c-0.63,0.15 -1.395,0.36 -2.295,0.63c-0.87,0.27 -1.77,0.675 -2.7,1.215c-0.9,0.54 -1.74,1.29 -2.52,2.25c-0.78,0.96 -1.41,2.205 -1.89,3.735c-0.45,1.5 -0.675,3.375 -0.675,5.625c0,0.48 0.015,0.87 0.045,1.17c0.03,0.27 0.06,0.57 0.09,0.9c0.06,0.3 0.105,0.75 0.135,1.35l-1.395,-1.17c0.33,-1.83 1.005,-3.42 2.025,-4.77c1.02,-1.38 2.295,-2.445 3.825,-3.195c1.56,-0.78 3.285,-1.17 5.175,-1.17c2.19,0 4.14,0.48 5.85,1.44c1.71,0.93 3.045,2.235 4.005,3.915c0.99,1.68 1.485,3.63 1.485,5.85c0,2.19 -0.51,4.155 -1.53,5.895c-0.99,1.74 -2.4,3.105 -4.23,4.095c-1.83,0.96 -3.975,1.44 -6.435,1.44zm0.36,-2.655c1.68,0 3.165,-0.375 4.455,-1.125c1.29,-0.78 2.295,-1.83 3.015,-3.15c0.75,-1.32 1.125,-2.805 1.125,-4.455c0,-1.62 -0.375,-3.06 -1.125,-4.32c-0.72,-1.26 -1.725,-2.25 -3.015,-2.97c-1.29,-0.75 -2.79,-1.125 -4.5,-1.125c-1.68,0 -3.165,0.36 -4.455,1.08c-1.29,0.69 -2.31,1.665 -3.06,2.925c-0.72,1.26 -1.08,2.715 -1.08,4.365c0,1.65 0.36,3.135 1.08,4.455c0.75,1.32 1.77,2.37 3.06,3.15c1.32,0.78 2.82,1.17 4.5,1.17zm28.808,2.61c-2.46,0 -4.62,-0.51 -6.48,-1.53c-1.86,-1.05 -3.315,-2.475 -4.365,-4.275c-1.05,-1.83 -1.575,-3.915 -1.575,-6.255c0,-2.34 0.495,-4.41 1.485,-6.21c1.02,-1.8 2.4,-3.21 4.14,-4.23c1.77,-1.05 3.75,-1.575 5.94,-1.575c2.22,0 4.185,0.51 5.895,1.53c1.74,0.99 3.105,2.4 4.095,4.23c0.99,1.8 1.485,3.885 1.485,6.255c0,0.15 -0.015,0.315 -0.045,0.495c0,0.15 0,0.315 0,0.495l-20.565,0l0,-2.385l18.855,0l-1.26,0.945c0,-1.71 -0.375,-3.225 -1.125,-4.545c-0.72,-1.35 -1.71,-2.4 -2.97,-3.15c-1.26,-0.75 -2.715,-1.125 -4.365,-1.125c-1.62,0 -3.075,0.375 -4.365,1.125c-1.29,0.75 -2.295,1.8 -3.015,3.15c-0.72,1.35 -1.08,2.895 -1.08,4.635l0,0.495c0,1.8 0.39,3.39 1.17,4.77c0.81,1.35 1.92,2.415 3.33,3.195c1.44,0.75 3.075,1.125 4.905,1.125c1.44,0 2.775,-0.255 4.005,-0.765c1.26,-0.51 2.34,-1.29 3.24,-2.34l1.8,2.07c-1.05,1.26 -2.37,2.22 -3.96,2.88c-1.56,0.66 -3.285,0.99 -5.175,0.99zm29.888,0c-2.04,0 -3.885,-0.465 -5.535,-1.395c-1.65,-0.96 -2.97,-2.325 -3.96,-4.095c-0.96,-1.8 -1.44,-3.99 -1.44,-6.57c0,-2.58 0.48,-4.755 1.44,-6.525c0.96,-1.8 2.265,-3.165 3.915,-4.095c1.65,-0.93 3.51,-1.395 5.58,-1.395c2.25,0 4.26,0.51 6.03,1.53c1.8,0.99 3.21,2.4 4.23,4.23c1.02,1.8 1.53,3.885 1.53,6.255c0,2.4 -0.51,4.5 -1.53,6.3c-1.02,1.8 -2.43,3.21 -4.23,4.23c-1.77,1.02 -3.78,1.53 -6.03,1.53zm-12.195,8.505l0,-32.355l3.06,0l0,7.11l-0.315,4.725l0.45,4.77l0,15.75l-3.195,0zm11.97,-11.34c1.68,0 3.18,-0.375 4.5,-1.125c1.32,-0.78 2.37,-1.86 3.15,-3.24c0.78,-1.41 1.17,-3.03 1.17,-4.86c0,-1.83 -0.39,-3.435 -1.17,-4.815c-0.78,-1.38 -1.83,-2.46 -3.15,-3.24c-1.32,-0.78 -2.82,-1.17 -4.5,-1.17c-1.68,0 -3.195,0.39 -4.545,1.17c-1.32,0.78 -2.37,1.86 -3.15,3.24c-0.75,1.38 -1.125,2.985 -1.125,4.815c0,1.83 0.375,3.45 1.125,4.86c0.78,1.38 1.83,2.46 3.15,3.24c1.35,0.75 2.865,1.125 4.545,1.125zm14.427,2.565l0.225,-2.745c0.21,0.03 0.405,0.075 0.585,0.135c0.21,0.03 0.39,0.045 0.54,0.045c0.96,0 1.725,-0.36 2.295,-1.08c0.6,-0.72 1.05,-1.68 1.35,-2.88c0.3,-1.2 0.51,-2.55 0.63,-4.05c0.12,-1.53 0.225,-3.06 0.315,-4.59l0.405,-8.415l17.325,0l0,23.625l-3.195,0l0,-21.78l0.81,0.945l-12.87,0l0.765,-0.99l-0.36,6.84c-0.09,2.04 -0.255,3.99 -0.495,5.85c-0.21,1.86 -0.555,3.495 -1.035,4.905c-0.45,1.41 -1.08,2.52 -1.89,3.33c-0.81,0.78 -1.845,1.17 -3.105,1.17c-0.36,0 -0.735,-0.03 -1.125,-0.09c-0.36,-0.06 -0.75,-0.135 -1.17,-0.225zm32.753,0.045l0,-23.625l3.195,0l0,23.625l-3.195,0zm1.62,-28.845c-0.66,0 -1.215,-0.225 -1.665,-0.675c-0.45,-0.45 -0.675,-0.99 -0.675,-1.62c0,-0.63 0.225,-1.155 0.675,-1.575c0.45,-0.45 1.005,-0.675 1.665,-0.675c0.66,0 1.215,0.21 1.665,0.63c0.45,0.42 0.675,0.945 0.675,1.575c0,0.66 -0.225,1.215 -0.675,1.665c-0.42,0.45 -0.975,0.675 -1.665,0.675zm28.01,28.845l-9.72,-11.7l2.655,-1.575l10.843,13.275l-3.778,0zm-17.325,0l0,-23.625l3.195,0l0,23.625l-3.195,0zm2.205,-10.53l0,-2.745l7.605,0l0,2.745l-7.605,0zm8.325,-0.945l-2.97,-0.45l9.405,-11.7l3.468,0l-9.903,12.15zm42.333,1.485c-1.38,0.6 -2.77,1.08 -4.18,1.44c-1.38,0.33 -2.76,0.495 -4.14,0.495c-2.79,0 -5,-0.63 -6.62,-1.89c-1.62,-1.29 -2.43,-3.27 -2.43,-5.94l0,-7.74l3.15,0l0,7.56c0,1.8 0.59,3.15 1.76,4.05c1.17,0.9 2.74,1.35 4.72,1.35c1.2,0 2.46,-0.15 3.78,-0.45c1.32,-0.33 2.66,-0.795 4.01,-1.395l-0.05,2.52zm-0.27,9.99l0,-23.625l3.2,0l0,23.625l-3.2,0zm22.4,0.225c-2.46,0 -4.62,-0.51 -6.48,-1.53c-1.86,-1.05 -3.32,-2.475 -4.37,-4.275c-1.05,-1.83 -1.57,-3.915 -1.57,-6.255c0,-2.34 0.49,-4.41 1.48,-6.21c1.02,-1.8 2.4,-3.21 4.14,-4.23c1.77,-1.05 3.75,-1.575 5.94,-1.575c2.22,0 4.19,0.51 5.9,1.53c1.74,0.99 3.1,2.4 4.09,4.23c0.99,1.8 1.49,3.885 1.49,6.255c0,0.15 -0.02,0.315 -0.05,0.495c0,0.15 0,0.315 0,0.495l-20.56,0l0,-2.385l18.85,0l-1.26,0.945c0,-1.71 -0.37,-3.225 -1.12,-4.545c-0.72,-1.35 -1.71,-2.4 -2.97,-3.15c-1.26,-0.75 -2.72,-1.125 -4.37,-1.125c-1.62,0 -3.07,0.375 -4.36,1.125c-1.29,0.75 -2.3,1.8 -3.02,3.15c-0.72,1.35 -1.08,2.895 -1.08,4.635l0,0.495c0,1.8 0.39,3.39 1.17,4.77c0.81,1.35 1.92,2.415 3.33,3.195c1.44,0.75 3.08,1.125 4.91,1.125c1.44,0 2.77,-0.255 4,-0.765c1.26,-0.51 2.34,-1.29 3.24,-2.34l1.8,2.07c-1.05,1.26 -2.37,2.22 -3.96,2.88c-1.56,0.66 -3.28,0.99 -5.17,0.99zm17.69,-0.225l0,-23.625l3.24,0l10.71,18.135l-1.35,0l10.89,-18.135l2.97,0l0,23.625l-2.93,0l0,-19.98l0.59,0.27l-10.17,16.83l-1.44,0l-10.26,-17.01l0.67,-0.135l0,20.025l-2.92,0zm35.55,0l0,-23.625l21.24,0l0,23.625l-3.2,0l0,-21.69l0.81,0.855l-16.47,0l0.81,-0.855l0,21.69l-3.19,0zm30.32,0l0,-23.625l3.2,0l0,18.765l15.79,-18.765l2.84,0l0,23.625l-3.2,0l0,-18.81l-15.75,18.81l-2.88,0zm40.7,0.225c-2.28,0 -4.33,-0.51 -6.16,-1.53c-1.8,-1.05 -3.23,-2.475 -4.28,-4.275c-1.05,-1.83 -1.57,-3.915 -1.57,-6.255c0,-2.37 0.52,-4.455 1.57,-6.255c1.05,-1.8 2.48,-3.21 4.28,-4.23c1.8,-1.02 3.85,-1.53 6.16,-1.53c2.34,0 4.41,0.51 6.21,1.53c1.83,1.02 3.26,2.43 4.28,4.23c1.05,1.8 1.57,3.885 1.57,6.255c0,2.34 -0.52,4.425 -1.57,6.255c-1.02,1.8 -2.45,3.225 -4.28,4.275c-1.83,1.02 -3.9,1.53 -6.21,1.53zm0,-2.835c1.71,0 3.23,-0.375 4.55,-1.125c1.32,-0.78 2.35,-1.86 3.1,-3.24c0.78,-1.41 1.17,-3.03 1.17,-4.86c0,-1.86 -0.39,-3.48 -1.17,-4.86c-0.75,-1.38 -1.78,-2.445 -3.1,-3.195c-1.32,-0.78 -2.82,-1.17 -4.5,-1.17c-1.68,0 -3.18,0.39 -4.5,1.17c-1.32,0.75 -2.37,1.815 -3.15,3.195c-0.78,1.38 -1.17,3 -1.17,4.86c0,1.83 0.39,3.45 1.17,4.86c0.78,1.38 1.83,2.46 3.15,3.24c1.32,0.75 2.8,1.125 4.45,1.125zm18.89,2.61l0,-23.625l3.2,0l0,10.44l14.89,0l0,-10.44l3.2,0l0,23.625l-3.2,0l0,-10.44l-14.89,0l0,10.44l-3.2,0zm45.04,0l0,-5.22l-0.14,-0.855l0,-8.73c0,-2.01 -0.57,-3.555 -1.71,-4.635c-1.11,-1.08 -2.77,-1.62 -4.99,-1.62c-1.53,0 -2.99,0.255 -4.37,0.765c-1.38,0.51 -2.55,1.185 -3.51,2.025l-1.44,-2.385c1.2,-1.02 2.64,-1.8 4.32,-2.34c1.68,-0.57 3.45,-0.855 5.31,-0.855c3.06,0 5.42,0.765 7.07,2.295c1.68,1.5 2.52,3.795 2.52,6.885l0,14.67l-3.06,0zm-8.15,0.225c-1.77,0 -3.31,-0.285 -4.63,-0.855c-1.29,-0.6 -2.28,-1.41 -2.97,-2.43c-0.69,-1.05 -1.04,-2.25 -1.04,-3.6c0,-1.23 0.29,-2.34 0.86,-3.33c0.6,-1.02 1.56,-1.83 2.88,-2.43c1.35,-0.63 3.15,-0.945 5.4,-0.945l8.14,0l0,2.385l-8.05,0c-2.28,0 -3.87,0.405 -4.77,1.215c-0.87,0.81 -1.31,1.815 -1.31,3.015c0,1.35 0.53,2.43 1.58,3.24c1.05,0.81 2.52,1.215 4.41,1.215c1.8,0 3.34,-0.405 4.63,-1.215c1.32,-0.84 2.28,-2.04 2.88,-3.6l0.72,2.205c-0.6,1.56 -1.65,2.805 -3.15,3.735c-1.47,0.93 -3.33,1.395 -5.58,1.395zm24.21,-0.225l0,-21.69l0.81,0.855l-9.76,0l0,-2.79l21.1,0l0,2.79l-9.76,0l0.81,-0.855l0,21.69l-3.2,0zm39.81,0l0,-23.625l3.2,0l0,23.625l-3.2,0zm-13.09,-15.3c2.97,0.03 5.23,0.69 6.79,1.98c1.56,1.29 2.34,3.15 2.34,5.58c0,2.52 -0.84,4.455 -2.52,5.805c-1.68,1.35 -4.08,2.01 -7.2,1.98l-9.36,-0.045l0,-23.625l3.2,0l0,8.235l6.75,0.09zm-0.81,12.915c2.22,0.03 3.88,-0.405 4.99,-1.305c1.14,-0.93 1.71,-2.28 1.71,-4.05c0,-1.77 -0.55,-3.06 -1.66,-3.87c-1.11,-0.84 -2.79,-1.275 -5.04,-1.305l-5.94,-0.09l0,10.53l5.94,0.09z"/>
   <path stroke="null" id="svg_73" fill="white" d="m615.082527,974.578551c-1.8,0.81 -3.6,1.425 -5.4,1.845c-1.77,0.42 -3.48,0.63 -5.13,0.63c-3.69,0 -6.57,-0.885 -8.64,-2.655c-2.04,-1.8 -3.06,-4.335 -3.06,-7.605l0,-10.395l3.285,0l0,10.035c0,2.43 0.765,4.32 2.295,5.67c1.56,1.35 3.705,2.025 6.435,2.025c1.62,0 3.3,-0.21 5.04,-0.63c1.74,-0.45 3.465,-1.08 5.175,-1.89l0,2.97zm-0.585,13.32l0,-31.5l3.24,0l0,31.5l-3.24,0zm23.285,0.225c-2.46,0 -4.62,-0.51 -6.48,-1.53c-1.86,-1.05 -3.315,-2.475 -4.365,-4.275c-1.05,-1.83 -1.575,-3.915 -1.575,-6.255c0,-2.34 0.495,-4.41 1.485,-6.21c1.02,-1.8 2.4,-3.21 4.14,-4.23c1.77,-1.05 3.75,-1.575 5.94,-1.575c2.22,0 4.185,0.51 5.895,1.53c1.74,0.99 3.105,2.4 4.095,4.23c0.99,1.8 1.485,3.885 1.485,6.255c0,0.15 -0.015,0.315 -0.045,0.495c0,0.15 0,0.315 0,0.495l-20.565,0l0,-2.385l18.855,0l-1.26,0.945c0,-1.71 -0.375,-3.225 -1.125,-4.545c-0.72,-1.35 -1.71,-2.4 -2.97,-3.15c-1.26,-0.75 -2.715,-1.125 -4.365,-1.125c-1.62,0 -3.075,0.375 -4.365,1.125c-1.29,0.75 -2.295,1.8 -3.015,3.15c-0.72,1.35 -1.08,2.895 -1.08,4.635l0,0.495c0,1.8 0.39,3.39 1.17,4.77c0.81,1.35 1.92,2.415 3.33,3.195c1.44,0.75 3.075,1.125 4.905,1.125c1.44,0 2.775,-0.255 4.005,-0.765c1.26,-0.51 2.34,-1.29 3.24,-2.34l1.8,2.07c-1.05,1.26 -2.37,2.22 -3.96,2.88c-1.56,0.66 -3.285,0.99 -5.175,0.99zm17.693,-0.225l0,-23.625l3.24,0l10.71,18.135l-1.35,0l10.89,-18.135l2.97,0l0,23.625l-2.925,0l0,-19.98l0.585,0.27l-10.17,16.83l-1.44,0l-10.26,-17.01l0.675,-0.135l0,20.025l-2.925,0zm35.551,0l0,-23.625l21.24,0l0,23.625l-3.195,0l0,-21.69l0.81,0.855l-16.47,0l0.81,-0.855l0,21.69l-3.195,0zm30.323,0l0,-23.625l3.195,0l0,18.765l15.795,-18.765l2.835,0l0,23.625l-3.195,0l0,-18.81l-15.75,18.81l-2.88,0zm40.701,0.225c-2.28,0 -4.335,-0.51 -6.165,-1.53c-1.8,-1.05 -3.225,-2.475 -4.275,-4.275c-1.05,-1.83 -1.575,-3.915 -1.575,-6.255c0,-2.37 0.525,-4.455 1.575,-6.255c1.05,-1.8 2.475,-3.21 4.275,-4.23c1.8,-1.02 3.855,-1.53 6.165,-1.53c2.34,0 4.41,0.51 6.21,1.53c1.83,1.02 3.255,2.43 4.275,4.23c1.05,1.8 1.575,3.885 1.575,6.255c0,2.34 -0.525,4.425 -1.575,6.255c-1.02,1.8 -2.445,3.225 -4.275,4.275c-1.83,1.02 -3.9,1.53 -6.21,1.53zm0,-2.835c1.71,0 3.225,-0.375 4.545,-1.125c1.32,-0.78 2.355,-1.86 3.105,-3.24c0.78,-1.41 1.17,-3.03 1.17,-4.86c0,-1.86 -0.39,-3.48 -1.17,-4.86c-0.75,-1.38 -1.785,-2.445 -3.105,-3.195c-1.32,-0.78 -2.82,-1.17 -4.5,-1.17c-1.68,0 -3.18,0.39 -4.5,1.17c-1.32,0.75 -2.37,1.815 -3.15,3.195c-0.78,1.38 -1.17,3 -1.17,4.86c0,1.83 0.39,3.45 1.17,4.86c0.78,1.38 1.83,2.46 3.15,3.24c1.32,0.75 2.805,1.125 4.455,1.125zm18.889,2.61l0,-23.625l3.195,0l0,10.44l14.895,0l0,-10.44l3.195,0l0,23.625l-3.195,0l0,-10.44l-14.895,0l0,10.44l-3.195,0zm45.036,0l0,-5.22l-0.135,-0.855l0,-8.73c0,-2.01 -0.57,-3.555 -1.71,-4.635c-1.11,-1.08 -2.775,-1.62 -4.995,-1.62c-1.53,0 -2.985,0.255 -4.365,0.765c-1.38,0.51 -2.55,1.185 -3.51,2.025l-1.44,-2.385c1.2,-1.02 2.64,-1.8 4.32,-2.34c1.68,-0.57 3.45,-0.855 5.31,-0.855c3.06,0 5.415,0.765 7.065,2.295c1.68,1.5 2.52,3.795 2.52,6.885l0,14.67l-3.06,0zm-8.145,0.225c-1.77,0 -3.315,-0.285 -4.635,-0.855c-1.29,-0.6 -2.28,-1.41 -2.97,-2.43c-0.69,-1.05 -1.035,-2.25 -1.035,-3.6c0,-1.23 0.285,-2.34 0.855,-3.33c0.6,-1.02 1.56,-1.83 2.88,-2.43c1.35,-0.63 3.15,-0.945 5.4,-0.945l8.145,0l0,2.385l-8.055,0c-2.28,0 -3.87,0.405 -4.77,1.215c-0.87,0.81 -1.305,1.815 -1.305,3.015c0,1.35 0.525,2.43 1.575,3.24c1.05,0.81 2.52,1.215 4.41,1.215c1.8,0 3.345,-0.405 4.635,-1.215c1.32,-0.84 2.28,-2.04 2.88,-3.6l0.72,2.205c-0.6,1.56 -1.65,2.805 -3.15,3.735c-1.47,0.93 -3.33,1.395 -5.58,1.395zm24.21,-0.225l0,-21.69l0.81,0.855l-9.765,0l0,-2.79l21.105,0l0,2.79l-9.765,0l0.81,-0.855l0,21.69l-3.195,0zm28.547,0l0,-23.625l21.24,0l0,23.625l-3.195,0l0,-21.69l0.81,0.855l-16.47,0l0.81,-0.855l0,21.69l-3.195,0zm42.517,0.225c-2.04,0 -3.885,-0.465 -5.535,-1.395c-1.65,-0.96 -2.97,-2.325 -3.96,-4.095c-0.96,-1.8 -1.44,-3.99 -1.44,-6.57c0,-2.58 0.48,-4.755 1.44,-6.525c0.96,-1.8 2.265,-3.165 3.915,-4.095c1.65,-0.93 3.51,-1.395 5.58,-1.395c2.25,0 4.26,0.51 6.03,1.53c1.8,0.99 3.21,2.4 4.23,4.23c1.02,1.8 1.53,3.885 1.53,6.255c0,2.4 -0.51,4.5 -1.53,6.3c-1.02,1.8 -2.43,3.21 -4.23,4.23c-1.77,1.02 -3.78,1.53 -6.03,1.53zm-12.195,8.505l0,-32.355l3.06,0l0,7.11l-0.315,4.725l0.45,4.77l0,15.75l-3.195,0zm11.97,-11.34c1.68,0 3.18,-0.375 4.5,-1.125c1.32,-0.78 2.37,-1.86 3.15,-3.24c0.78,-1.41 1.17,-3.03 1.17,-4.86c0,-1.83 -0.39,-3.435 -1.17,-4.815c-0.78,-1.38 -1.83,-2.46 -3.15,-3.24c-1.32,-0.78 -2.82,-1.17 -4.5,-1.17c-1.68,0 -3.195,0.39 -4.545,1.17c-1.32,0.78 -2.37,1.86 -3.15,3.24c-0.75,1.38 -1.125,2.985 -1.125,4.815c0,1.83 0.375,3.45 1.125,4.86c0.78,1.38 1.83,2.46 3.15,3.24c1.35,0.75 2.865,1.125 4.545,1.125zm28.6,2.835c-2.28,0 -4.335,-0.51 -6.165,-1.53c-1.8,-1.05 -3.225,-2.475 -4.275,-4.275c-1.05,-1.83 -1.575,-3.915 -1.575,-6.255c0,-2.37 0.525,-4.455 1.575,-6.255c1.05,-1.8 2.475,-3.21 4.275,-4.23c1.8,-1.02 3.855,-1.53 6.165,-1.53c2.34,0 4.41,0.51 6.21,1.53c1.83,1.02 3.255,2.43 4.275,4.23c1.05,1.8 1.575,3.885 1.575,6.255c0,2.34 -0.525,4.425 -1.575,6.255c-1.02,1.8 -2.445,3.225 -4.275,4.275c-1.83,1.02 -3.9,1.53 -6.21,1.53zm0,-2.835c1.71,0 3.225,-0.375 4.545,-1.125c1.32,-0.78 2.355,-1.86 3.105,-3.24c0.78,-1.41 1.17,-3.03 1.17,-4.86c0,-1.86 -0.39,-3.48 -1.17,-4.86c-0.75,-1.38 -1.785,-2.445 -3.105,-3.195c-1.32,-0.78 -2.82,-1.17 -4.5,-1.17c-1.68,0 -3.18,0.39 -4.5,1.17c-1.32,0.75 -2.37,1.815 -3.15,3.195c-0.78,1.38 -1.17,3 -1.17,4.86c0,1.83 0.39,3.45 1.17,4.86c0.78,1.38 1.83,2.46 3.15,3.24c1.32,0.75 2.805,1.125 4.455,1.125zm32.163,2.88c0,0 -0.06,0 -0.18,0c-0.12,0 -0.24,0 -0.36,0c-0.09,0 -0.165,0 -0.225,0c-4.68,-0.03 -8.325,-1.095 -10.935,-3.195c-2.61,-2.1 -3.915,-5.085 -3.915,-8.955c0,-3.81 1.305,-6.75 3.915,-8.82c2.64,-2.1 6.345,-3.165 11.115,-3.195c0.03,0 0.09,0 0.18,0c0.12,0 0.225,0 0.315,0c0.09,0 0.15,0 0.18,0c4.8,0.03 8.535,1.095 11.205,3.195c2.67,2.07 4.005,5.01 4.005,8.82c0,3.9 -1.35,6.9 -4.05,9c-2.67,2.1 -6.42,3.15 -11.25,3.15zm-0.045,-2.79c2.67,0 4.905,-0.36 6.705,-1.08c1.8,-0.75 3.165,-1.815 4.095,-3.195c0.93,-1.38 1.395,-3.075 1.395,-5.085c0,-1.95 -0.465,-3.6 -1.395,-4.95c-0.93,-1.38 -2.295,-2.43 -4.095,-3.15c-1.8,-0.72 -4.035,-1.08 -6.705,-1.08c-0.03,0 -0.12,0 -0.27,0c-0.12,0 -0.195,0 -0.225,0c-2.61,0 -4.8,0.375 -6.57,1.125c-1.77,0.72 -3.105,1.755 -4.005,3.105c-0.9,1.35 -1.35,3 -1.35,4.95c0,1.98 0.45,3.66 1.35,5.04c0.93,1.38 2.28,2.445 4.05,3.195c1.77,0.72 3.945,1.095 6.525,1.125c0.06,0 0.15,0 0.27,0c0.12,0 0.195,0 0.225,0zm-1.71,11.25l0,-42.12l3.105,0l0,42.12l-3.105,0zm33.937,-8.505c-2.46,0 -4.62,-0.51 -6.48,-1.53c-1.86,-1.05 -3.315,-2.475 -4.365,-4.275c-1.05,-1.83 -1.575,-3.915 -1.575,-6.255c0,-2.34 0.495,-4.41 1.485,-6.21c1.02,-1.8 2.4,-3.21 4.14,-4.23c1.77,-1.05 3.75,-1.575 5.94,-1.575c2.22,0 4.185,0.51 5.895,1.53c1.74,0.99 3.105,2.4 4.099,4.23c0.99,1.8 1.48,3.885 1.48,6.255c0,0.15 -0.01,0.315 -0.04,0.495c0,0.15 0,0.315 0,0.495l-20.569,0l0,-2.385l18.859,0l-1.264,0.945c0,-1.71 -0.375,-3.225 -1.125,-4.545c-0.72,-1.35 -1.71,-2.4 -2.97,-3.15c-1.26,-0.75 -2.715,-1.125 -4.365,-1.125c-1.62,0 -3.075,0.375 -4.365,1.125c-1.29,0.75 -2.295,1.8 -3.015,3.15c-0.72,1.35 -1.08,2.895 -1.08,4.635l0,0.495c0,1.8 0.39,3.39 1.17,4.77c0.81,1.35 1.92,2.415 3.33,3.195c1.44,0.75 3.075,1.125 4.905,1.125c1.44,0 2.775,-0.255 4.005,-0.765c1.26,-0.51 2.34,-1.29 3.24,-2.34l1.804,2.07c-1.054,1.26 -2.374,2.22 -3.964,2.88c-1.56,0.66 -3.285,0.99 -5.175,0.99zm27.589,0c-2.34,0 -4.44,-0.51 -6.3,-1.53c-1.83,-1.05 -3.27,-2.475 -4.32,-4.275c-1.05,-1.83 -1.57,-3.915 -1.57,-6.255c0,-2.37 0.52,-4.455 1.57,-6.255c1.05,-1.8 2.49,-3.21 4.32,-4.23c1.86,-1.02 3.96,-1.53 6.3,-1.53c2.01,0 3.83,0.39 5.45,1.17c1.62,0.78 2.89,1.95 3.82,3.51l-2.38,1.62c-0.81,-1.2 -1.82,-2.085 -3.02,-2.655c-1.2,-0.57 -2.5,-0.855 -3.91,-0.855c-1.68,0 -3.2,0.39 -4.55,1.17c-1.35,0.75 -2.41,1.815 -3.19,3.195c-0.78,1.38 -1.17,3 -1.17,4.86c0,1.86 0.39,3.48 1.17,4.86c0.78,1.38 1.84,2.46 3.19,3.24c1.35,0.75 2.87,1.125 4.55,1.125c1.41,0 2.71,-0.285 3.91,-0.855c1.2,-0.57 2.21,-1.44 3.02,-2.61l2.38,1.62c-0.93,1.53 -2.2,2.7 -3.82,3.51c-1.62,0.78 -3.44,1.17 -5.45,1.17zm24.96,0c-2.34,0 -4.44,-0.51 -6.3,-1.53c-1.83,-1.05 -3.27,-2.475 -4.32,-4.275c-1.05,-1.83 -1.57,-3.915 -1.57,-6.255c0,-2.37 0.52,-4.455 1.57,-6.255c1.05,-1.8 2.49,-3.21 4.32,-4.23c1.86,-1.02 3.96,-1.53 6.3,-1.53c2.01,0 3.83,0.39 5.45,1.17c1.62,0.78 2.89,1.95 3.82,3.51l-2.38,1.62c-0.81,-1.2 -1.82,-2.085 -3.02,-2.655c-1.2,-0.57 -2.5,-0.855 -3.91,-0.855c-1.68,0 -3.2,0.39 -4.55,1.17c-1.35,0.75 -2.41,1.815 -3.19,3.195c-0.78,1.38 -1.17,3 -1.17,4.86c0,1.86 0.39,3.48 1.17,4.86c0.78,1.38 1.84,2.46 3.19,3.24c1.35,0.75 2.87,1.125 4.55,1.125c1.41,0 2.71,-0.285 3.91,-0.855c1.2,-0.57 2.21,-1.44 3.02,-2.61l2.38,1.62c-0.93,1.53 -2.2,2.7 -3.82,3.51c-1.62,0.78 -3.44,1.17 -5.45,1.17zm15.46,-0.225l0,-23.625l3.2,0l0,18.765l15.79,-18.765l2.84,0l0,23.625l-3.2,0l0,-18.81l-15.75,18.81l-2.88,0zm40.7,0.225c-2.28,0 -4.33,-0.51 -6.16,-1.53c-1.8,-1.05 -3.23,-2.475 -4.28,-4.275c-1.05,-1.83 -1.57,-3.915 -1.57,-6.255c0,-2.37 0.52,-4.455 1.57,-6.255c1.05,-1.8 2.48,-3.21 4.28,-4.23c1.8,-1.02 3.85,-1.53 6.16,-1.53c2.34,0 4.41,0.51 6.21,1.53c1.83,1.02 3.26,2.43 4.28,4.23c1.05,1.8 1.57,3.885 1.57,6.255c0,2.34 -0.52,4.425 -1.57,6.255c-1.02,1.8 -2.45,3.225 -4.28,4.275c-1.83,1.02 -3.9,1.53 -6.21,1.53zm0,-2.835c1.71,0 3.23,-0.375 4.55,-1.125c1.32,-0.78 2.35,-1.86 3.1,-3.24c0.78,-1.41 1.17,-3.03 1.17,-4.86c0,-1.86 -0.39,-3.48 -1.17,-4.86c-0.75,-1.38 -1.78,-2.445 -3.1,-3.195c-1.32,-0.78 -2.82,-1.17 -4.5,-1.17c-1.68,0 -3.18,0.39 -4.5,1.17c-1.32,0.75 -2.37,1.815 -3.15,3.195c-0.78,1.38 -1.17,3 -1.17,4.86c0,1.83 0.39,3.45 1.17,4.86c0.78,1.38 1.83,2.46 3.15,3.24c1.32,0.75 2.8,1.125 4.45,1.125zm18.89,2.61l0,-23.625l3.2,0l0,10.44l14.89,0l0,-10.44l3.2,0l0,23.625l-3.2,0l0,-10.44l-14.89,0l0,10.44l-3.2,0zm45.04,0l0,-5.22l-0.14,-0.855l0,-8.73c0,-2.01 -0.57,-3.555 -1.71,-4.635c-1.11,-1.08 -2.77,-1.62 -4.99,-1.62c-1.53,0 -2.99,0.255 -4.37,0.765c-1.38,0.51 -2.55,1.185 -3.51,2.025l-1.44,-2.385c1.2,-1.02 2.64,-1.8 4.32,-2.34c1.68,-0.57 3.45,-0.855 5.31,-0.855c3.06,0 5.42,0.765 7.07,2.295c1.68,1.5 2.52,3.795 2.52,6.885l0,14.67l-3.06,0zm-8.15,0.225c-1.77,0 -3.31,-0.285 -4.63,-0.855c-1.29,-0.6 -2.28,-1.41 -2.97,-2.43c-0.69,-1.05 -1.04,-2.25 -1.04,-3.6c0,-1.23 0.29,-2.34 0.86,-3.33c0.6,-1.02 1.56,-1.83 2.88,-2.43c1.35,-0.63 3.15,-0.945 5.4,-0.945l8.14,0l0,2.385l-8.05,0c-2.28,0 -3.87,0.405 -4.77,1.215c-0.87,0.81 -1.31,1.815 -1.31,3.015c0,1.35 0.53,2.43 1.58,3.24c1.05,0.81 2.52,1.215 4.41,1.215c1.8,0 3.34,-0.405 4.63,-1.215c1.32,-0.84 2.28,-2.04 2.88,-3.6l0.72,2.205c-0.6,1.56 -1.65,2.805 -3.15,3.735c-1.47,0.93 -3.33,1.395 -5.58,1.395zm15.39,-0.27l0.23,-2.745c0.21,0.03 0.4,0.075 0.58,0.135c0.21,0.03 0.39,0.045 0.54,0.045c0.96,0 1.73,-0.36 2.3,-1.08c0.6,-0.72 1.05,-1.68 1.35,-2.88c0.3,-1.2 0.51,-2.55 0.63,-4.05c0.12,-1.53 0.22,-3.06 0.31,-4.59l0.41,-8.415l17.32,0l0,23.625l-3.19,0l0,-21.78l0.81,0.945l-12.87,0l0.76,-0.99l-0.36,6.84c-0.09,2.04 -0.25,3.99 -0.49,5.85c-0.21,1.86 -0.56,3.495 -1.04,4.905c-0.45,1.41 -1.08,2.52 -1.89,3.33c-0.81,0.78 -1.84,1.17 -3.1,1.17c-0.36,0 -0.74,-0.03 -1.13,-0.09c-0.36,-0.06 -0.75,-0.135 -1.17,-0.225zm42.93,-15.255c2.97,0.03 5.22,0.69 6.75,1.98c1.56,1.29 2.34,3.15 2.34,5.58c0,2.52 -0.84,4.455 -2.52,5.805c-1.65,1.35 -4.05,2.01 -7.2,1.98l-9.54,-0.045l0,-23.625l3.19,0l0,8.235l6.98,0.09zm-0.81,12.915c2.19,0.03 3.84,-0.405 4.95,-1.305c1.14,-0.93 1.71,-2.28 1.71,-4.05c0,-1.77 -0.56,-3.06 -1.67,-3.87c-1.11,-0.84 -2.77,-1.275 -4.99,-1.305l-6.17,-0.09l0,10.53l6.17,0.09zm15.99,2.385l0,-23.625l3.2,0l0,10.44l14.89,0l0,-10.44l3.2,0l0,23.625l-3.2,0l0,-10.44l-14.89,0l0,10.44l-3.2,0zm40.09,0.225c-2.28,0 -4.34,-0.51 -6.17,-1.53c-1.8,-1.05 -3.22,-2.475 -4.27,-4.275c-1.05,-1.83 -1.58,-3.915 -1.58,-6.255c0,-2.37 0.53,-4.455 1.58,-6.255c1.05,-1.8 2.47,-3.21 4.27,-4.23c1.8,-1.02 3.86,-1.53 6.17,-1.53c2.34,0 4.41,0.51 6.21,1.53c1.83,1.02 3.25,2.43 4.27,4.23c1.05,1.8 1.58,3.885 1.58,6.255c0,2.34 -0.53,4.425 -1.58,6.255c-1.02,1.8 -2.44,3.225 -4.27,4.275c-1.83,1.02 -3.9,1.53 -6.21,1.53zm0,-2.835c1.71,0 3.22,-0.375 4.54,-1.125c1.32,-0.78 2.36,-1.86 3.11,-3.24c0.78,-1.41 1.17,-3.03 1.17,-4.86c0,-1.86 -0.39,-3.48 -1.17,-4.86c-0.75,-1.38 -1.79,-2.445 -3.11,-3.195c-1.32,-0.78 -2.82,-1.17 -4.5,-1.17c-1.68,0 -3.18,0.39 -4.5,1.17c-1.32,0.75 -2.37,1.815 -3.15,3.195c-0.78,1.38 -1.17,3 -1.17,4.86c0,1.83 0.39,3.45 1.17,4.86c0.78,1.38 1.83,2.46 3.15,3.24c1.32,0.75 2.81,1.125 4.46,1.125zm18.89,2.61l0,-23.625l16.74,0l0,2.79l-14.36,0l0.81,-0.81l0,21.645l-3.19,0zm29.97,0.225c-2.28,0 -4.33,-0.51 -6.16,-1.53c-1.8,-1.05 -3.23,-2.475 -4.28,-4.275c-1.05,-1.83 -1.57,-3.915 -1.57,-6.255c0,-2.37 0.52,-4.455 1.57,-6.255c1.05,-1.8 2.48,-3.21 4.28,-4.23c1.8,-1.02 3.85,-1.53 6.16,-1.53c2.34,0 4.41,0.51 6.21,1.53c1.83,1.02 3.26,2.43 4.28,4.23c1.05,1.8 1.57,3.885 1.57,6.255c0,2.34 -0.52,4.425 -1.57,6.255c-1.02,1.8 -2.45,3.225 -4.28,4.275c-1.83,1.02 -3.9,1.53 -6.21,1.53zm0,-2.835c1.71,0 3.23,-0.375 4.55,-1.125c1.32,-0.78 2.35,-1.86 3.1,-3.24c0.78,-1.41 1.17,-3.03 1.17,-4.86c0,-1.86 -0.39,-3.48 -1.17,-4.86c-0.75,-1.38 -1.78,-2.445 -3.1,-3.195c-1.32,-0.78 -2.82,-1.17 -4.5,-1.17c-1.68,0 -3.18,0.39 -4.5,1.17c-1.32,0.75 -2.37,1.815 -3.15,3.195c-0.78,1.38 -1.17,3 -1.17,4.86c0,1.83 0.39,3.45 1.17,4.86c0.78,1.38 1.83,2.46 3.15,3.24c1.32,0.75 2.8,1.125 4.45,1.125zm-486.346,57.61l0,-23.63l3.24,0l10.71,18.14l-1.35,0l10.89,-18.14l2.97,0l0,23.63l-2.925,0l0,-19.98l0.585,0.27l-10.17,16.83l-1.44,0l-10.26,-17.01l0.675,-0.14l0,20.03l-2.925,0zm50.222,0l0,-5.22l-0.135,-0.86l0,-8.73c0,-2.01 -0.57,-3.55 -1.71,-4.63c-1.11,-1.08 -2.775,-1.62 -4.995,-1.62c-1.53,0 -2.985,0.25 -4.365,0.76c-1.38,0.51 -2.55,1.19 -3.51,2.03l-1.44,-2.39c1.2,-1.02 2.64,-1.8 4.32,-2.34c1.68,-0.57 3.45,-0.85 5.31,-0.85c3.06,0 5.415,0.76 7.065,2.29c1.68,1.5 2.52,3.8 2.52,6.89l0,14.67l-3.06,0zm-8.145,0.23c-1.77,0 -3.315,-0.29 -4.635,-0.86c-1.29,-0.6 -2.28,-1.41 -2.97,-2.43c-0.69,-1.05 -1.035,-2.25 -1.035,-3.6c0,-1.23 0.285,-2.34 0.855,-3.33c0.6,-1.02 1.56,-1.83 2.88,-2.43c1.35,-0.63 3.15,-0.95 5.4,-0.95l8.145,0l0,2.39l-8.055,0c-2.28,0 -3.87,0.4 -4.77,1.21c-0.87,0.81 -1.305,1.82 -1.305,3.02c0,1.35 0.525,2.43 1.575,3.24c1.05,0.81 2.52,1.21 4.41,1.21c1.8,0 3.345,-0.4 4.635,-1.21c1.32,-0.84 2.28,-2.04 2.88,-3.6l0.72,2.2c-0.6,1.56 -1.65,2.81 -3.15,3.74c-1.47,0.93 -3.33,1.4 -5.58,1.4zm29.61,0c-2.34,0 -4.44,-0.52 -6.3,-1.54c-1.83,-1.05 -3.27,-2.47 -4.32,-4.27c-1.05,-1.83 -1.575,-3.92 -1.575,-6.26c0,-2.37 0.525,-4.45 1.575,-6.25c1.05,-1.8 2.49,-3.21 4.32,-4.23c1.86,-1.02 3.96,-1.53 6.3,-1.53c2.01,0 3.825,0.39 5.445,1.17c1.62,0.78 2.895,1.95 3.825,3.51l-2.385,1.62c-0.81,-1.2 -1.815,-2.09 -3.015,-2.66c-1.2,-0.57 -2.505,-0.85 -3.915,-0.85c-1.68,0 -3.195,0.39 -4.545,1.17c-1.35,0.75 -2.415,1.81 -3.195,3.19c-0.78,1.38 -1.17,3 -1.17,4.86c0,1.86 0.39,3.48 1.17,4.86c0.78,1.38 1.845,2.46 3.195,3.24c1.35,0.75 2.865,1.13 4.545,1.13c1.41,0 2.715,-0.29 3.915,-0.86c1.2,-0.57 2.205,-1.44 3.015,-2.61l2.385,1.62c-0.93,1.53 -2.205,2.7 -3.825,3.51c-1.62,0.78 -3.435,1.18 -5.445,1.18zm19.517,-0.23l0,-21.69l0.81,0.85l-9.765,0l0,-2.79l21.105,0l0,2.79l-9.765,0l0.81,-0.85l0,21.69l-3.195,0zm25.796,0.23c-2.46,0 -4.62,-0.52 -6.48,-1.54c-1.86,-1.05 -3.315,-2.47 -4.365,-4.27c-1.05,-1.83 -1.575,-3.92 -1.575,-6.26c0,-2.34 0.495,-4.41 1.485,-6.21c1.02,-1.8 2.4,-3.21 4.14,-4.23c1.77,-1.05 3.75,-1.57 5.94,-1.57c2.22,0 4.185,0.51 5.895,1.53c1.74,0.99 3.105,2.4 4.095,4.23c0.99,1.8 1.485,3.88 1.485,6.25c0,0.15 -0.015,0.32 -0.045,0.5c0,0.15 0,0.31 0,0.49l-20.565,0l0,-2.38l18.855,0l-1.26,0.94c0,-1.71 -0.375,-3.22 -1.125,-4.54c-0.72,-1.35 -1.71,-2.4 -2.97,-3.15c-1.26,-0.75 -2.715,-1.13 -4.365,-1.13c-1.62,0 -3.075,0.38 -4.365,1.13c-1.29,0.75 -2.295,1.8 -3.015,3.15c-0.72,1.35 -1.08,2.89 -1.08,4.63l0,0.5c0,1.8 0.39,3.39 1.17,4.77c0.81,1.35 1.92,2.41 3.33,3.19c1.44,0.75 3.075,1.13 4.905,1.13c1.44,0 2.775,-0.26 4.005,-0.77c1.26,-0.51 2.34,-1.29 3.24,-2.34l1.8,2.07c-1.05,1.26 -2.37,2.22 -3.96,2.88c-1.56,0.66 -3.285,1 -5.175,1zm29.887,0c-2.04,0 -3.885,-0.47 -5.535,-1.4c-1.65,-0.96 -2.97,-2.33 -3.96,-4.1c-0.96,-1.8 -1.44,-3.99 -1.44,-6.57c0,-2.58 0.48,-4.75 1.44,-6.52c0.96,-1.8 2.265,-3.17 3.915,-4.1c1.65,-0.93 3.51,-1.39 5.58,-1.39c2.25,0 4.26,0.51 6.03,1.53c1.8,0.99 3.21,2.4 4.23,4.23c1.02,1.8 1.53,3.88 1.53,6.25c0,2.4 -0.51,4.5 -1.53,6.3c-1.02,1.8 -2.43,3.21 -4.23,4.23c-1.77,1.02 -3.78,1.54 -6.03,1.54zm-12.195,8.5l0,-32.36l3.06,0l0,7.11l-0.315,4.73l0.45,4.77l0,15.75l-3.195,0zm11.97,-11.34c1.68,0 3.18,-0.38 4.5,-1.13c1.32,-0.78 2.37,-1.86 3.15,-3.24c0.78,-1.41 1.17,-3.03 1.17,-4.86c0,-1.83 -0.39,-3.43 -1.17,-4.81c-0.78,-1.38 -1.83,-2.46 -3.15,-3.24c-1.32,-0.78 -2.82,-1.17 -4.5,-1.17c-1.68,0 -3.195,0.39 -4.545,1.17c-1.32,0.78 -2.37,1.86 -3.15,3.24c-0.75,1.38 -1.125,2.98 -1.125,4.81c0,1.83 0.375,3.45 1.125,4.86c0.78,1.38 1.83,2.46 3.15,3.24c1.35,0.75 2.865,1.13 4.545,1.13zm28.784,2.84c-2.34,0 -4.44,-0.52 -6.3,-1.54c-1.834,-1.05 -3.274,-2.47 -4.324,-4.27c-1.05,-1.83 -1.575,-3.92 -1.575,-6.26c0,-2.37 0.525,-4.45 1.575,-6.25c1.05,-1.8 2.49,-3.21 4.324,-4.23c1.86,-1.02 3.96,-1.53 6.3,-1.53c2.01,0 3.82,0.39 5.44,1.17c1.62,0.78 2.9,1.95 3.83,3.51l-2.39,1.62c-0.81,-1.2 -1.81,-2.09 -3.01,-2.66c-1.2,-0.57 -2.51,-0.85 -3.92,-0.85c-1.68,0 -3.19,0.39 -4.54,1.17c-1.35,0.75 -2.42,1.81 -3.2,3.19c-0.779,1.38 -1.169,3 -1.169,4.86c0,1.86 0.39,3.48 1.169,4.86c0.78,1.38 1.85,2.46 3.2,3.24c1.35,0.75 2.86,1.13 4.54,1.13c1.41,0 2.72,-0.29 3.92,-0.86c1.2,-0.57 2.2,-1.44 3.01,-2.61l2.39,1.62c-0.93,1.53 -2.21,2.7 -3.83,3.51c-1.62,0.78 -3.43,1.18 -5.44,1.18zm19.51,-0.23l0,-21.69l0.81,0.85l-9.76,0l0,-2.79l21.1,0l0,2.79l-9.76,0l0.81,-0.85l0,21.69l-3.2,0zm16.77,0l0,-23.63l10.44,0c2.67,0 4.77,0.51 6.3,1.53c1.56,1.02 2.34,2.52 2.34,4.5c0,1.92 -0.73,3.41 -2.2,4.46c-1.47,1.02 -3.41,1.53 -5.81,1.53l0.63,-0.95c2.82,0 4.89,0.53 6.21,1.58c1.32,1.05 1.98,2.56 1.98,4.54c0,2.04 -0.75,3.63 -2.25,4.77c-1.47,1.11 -3.76,1.67 -6.88,1.67l-10.76,0zm3.11,-2.52l7.51,0c2.01,0 3.53,-0.32 4.55,-0.95c1.05,-0.66 1.57,-1.71 1.57,-3.14c0,-1.45 -0.46,-2.5 -1.39,-3.16c-0.93,-0.66 -2.4,-0.99 -4.41,-0.99l-7.83,0l0,8.24zm0,-10.62l7.11,0c1.83,0 3.22,-0.35 4.18,-1.04c0.99,-0.69 1.49,-1.69 1.49,-3.01c0,-1.32 -0.5,-2.31 -1.49,-2.97c-0.96,-0.66 -2.35,-0.99 -4.18,-0.99l-7.11,0l0,8.01zm38.94,13.14l0,-5.22l-0.13,-0.86l0,-8.73c0,-2.01 -0.57,-3.55 -1.71,-4.63c-1.11,-1.08 -2.78,-1.62 -5,-1.62c-1.53,0 -2.98,0.25 -4.36,0.76c-1.38,0.51 -2.55,1.19 -3.51,2.03l-1.44,-2.39c1.2,-1.02 2.64,-1.8 4.32,-2.34c1.68,-0.57 3.45,-0.85 5.31,-0.85c3.06,0 5.41,0.76 7.06,2.29c1.68,1.5 2.52,3.8 2.52,6.89l0,14.67l-3.06,0zm-8.14,0.23c-1.77,0 -3.32,-0.29 -4.64,-0.86c-1.29,-0.6 -2.28,-1.41 -2.97,-2.43c-0.69,-1.05 -1.03,-2.25 -1.03,-3.6c0,-1.23 0.28,-2.34 0.85,-3.33c0.6,-1.02 1.56,-1.83 2.88,-2.43c1.35,-0.63 3.15,-0.95 5.4,-0.95l8.15,0l0,2.39l-8.06,0c-2.28,0 -3.87,0.4 -4.77,1.21c-0.87,0.81 -1.3,1.82 -1.3,3.02c0,1.35 0.52,2.43 1.57,3.24c1.05,0.81 2.52,1.21 4.41,1.21c1.8,0 3.35,-0.4 4.64,-1.21c1.32,-0.84 2.28,-2.04 2.88,-3.6l0.72,2.2c-0.6,1.56 -1.65,2.81 -3.15,3.74c-1.47,0.93 -3.33,1.4 -5.58,1.4z"/>
   <path stroke="null" id="svg_76" d="m1426.846327,219.944481c-8.76377,-27.83888 -16.43207,43.61424 10.95472,26.91092c27.3868,-16.70333 -2.19094,0.92796 -10.95472,-26.91092z" fill-opacity="null" stroke-opacity="null" stroke-width="null" fill="#314683"/>
   <text stroke="null" font-weight="bold" transform="matrix(1.9666526924294556,0,0,2.2485597870867484,-838.4884556658429,-185.54180655682197) " xml:space="preserve" text-anchor="start" font-family="Arvo, sans-serif" font-size="39" id="svg_77" y="178.645373" x="685.542664" stroke-opacity="null" stroke-width="0" fill="#ffffff">Worldskills Aqtobe 2024</text>
  </g>
 </g>
</svg>