<svg width="512" height="512" viewBox="0 0 512 512" fill="none" xmlns="http://www.w3.org/2000/svg">
<g clip-path="url(#clip0_19_66)">
<path d="M256 0C114.837 0 0 114.837 0 256C0 397.163 114.837 512 256 512C397.163 512 512 397.163 512 256C512 114.837 397.163 0 256 0ZM256 469.333C138.368 469.333 42.6667 373.632 42.6667 256C42.6667 138.368 138.368 42.6667 256 42.6667C373.632 42.6667 469.333 138.368 469.333 256C469.333 373.632 373.632 469.333 256 469.333ZM234.667 192V320C234.667 331.776 225.109 341.333 213.333 341.333C201.557 341.333 192 331.776 192 320V192C192 180.224 201.557 170.667 213.333 170.667C225.109 170.667 234.667 180.224 234.667 192ZM320 192V320C320 331.776 310.443 341.333 298.667 341.333C286.891 341.333 277.333 331.776 277.333 320V192C277.333 180.224 286.891 170.667 298.667 170.667C310.443 170.667 320 180.224 320 192Z" fill="white"/>
</g>
<defs>
<clipPath id="clip0_19_66">
<rect width="512" height="512" fill="white"/>
</clipPath>
</defs>
</svg>
